<?xml version="1.0" encoding="UTF-8" standalone="no"?>
<svg
   xmlns:dc="http://purl.org/dc/elements/1.1/"
   xmlns:cc="http://creativecommons.org/ns#"
   xmlns:rdf="http://www.w3.org/1999/02/22-rdf-syntax-ns#"
   xmlns:svg="http://www.w3.org/2000/svg"
   xmlns="http://www.w3.org/2000/svg"
   viewBox="0 0 145.99269 119.31628"
   height="119.31628"
   width="145.99269"
   id="svg84"
   version="1.1">
  <metadata
     id="metadata90">
    <rdf:RDF>
      <cc:Work
         rdf:about="">
        <dc:format>image/svg+xml</dc:format>
        <dc:type
           rdf:resource="http://purl.org/dc/dcmitype/StillImage" />
        <dc:title></dc:title>
      </cc:Work>
    </rdf:RDF>
  </metadata>
  <defs
     id="defs88" />
  <path
     id="path100"
     d="M 34.634805,114.58467 C 19.841293,107.61755 10.617781,98.097856 4.3807175,83.359083 -1.9280675,68.450825 -1.4494075,55.278043 5.9895005,39.085406 14.331827,20.926248 19.80084,15.408792 37.674724,7.1195216 51.535525,0.69137958 56.957623,0.06791558 99.23306,0.04117458 c 25.49731,-0.01621 41.75302,-0.08513 46.47684,0.0021 1.44623,0.02672 -2.95331,8.72084702 -6.41857,13.07054642 -6.20741,7.791735 -6.8629,7.908545 -44.379363,7.908545 -42.888885,0 -54.222682,3.302157 -65.656885,19.129457 -4.718426,6.531277 -6.779947,13.702345 -6.779947,23.584279 0,12.034997 1.514888,15.695181 9.938194,24.012046 8.609351,8.500569 11.997913,9.812617 25.342527,9.812617 13.189916,0 16.482802,-1.237947 22.906528,-8.611609 C 90.5422,77.608321 89.404447,64.404972 77.814319,55.898075 70.038267,50.190624 68.636632,50.037706 61.338505,54.10056 c -13.451879,7.488634 -12.725689,12.92937 1.410968,10.571177 9.831865,-1.640091 12.496687,-1.054669 14.111419,3.100084 1.094856,2.8171 -0.123871,8.308377 -2.708269,12.202836 -6.19125,9.329709 -25.982504,9.939916 -34.95794,1.077892 -9.61039,-9.488955 -8.264117,-28.320148 2.806078,-39.250461 l 8.885915,-8.773633 h 39.932177 c 31.072067,0 39.452527,0.832464 37.770427,3.751881 -5.21912,9.058179 -11.7849,14.257153 -18.00534,14.257153 -6.30703,0 -6.51834,0.695327 -3.54916,11.678803 4.22121,15.614974 -3.63613,36.476537 -17.738815,47.097258 -13.94762,10.50394 -38.025932,12.60564 -54.66116,4.77115 z"
     style="fill:#000000;stroke-width:3.02065086" />
</svg>
